<?xml version="1.0" standalone="no"?>
<!DOCTYPE svg PUBLIC "-//W3C//DTD SVG 20010904//EN"
 "http://www.w3.org/TR/2001/REC-SVG-20010904/DTD/svg10.dtd">
<svg version="1.0" xmlns="http://www.w3.org/2000/svg"
 width="1536.000000pt" height="1536.000000pt" viewBox="0 0 1536.000000 1536.000000"
 preserveAspectRatio="xMidYMid meet">

<g transform="translate(0.000000,1536.000000) scale(0.100000,-0.100000)"
fill="#000000" stroke="none">
<path d="M13561 15279 c3 -118 13 -158 44 -185 15 -13 32 -25 38 -27 8 -2 6
-49 -6 -163 -10 -87 -20 -168 -22 -179 -4 -21 -80 -63 -164 -92 -60 -20 -76
-35 -90 -86 -21 -78 -14 -155 17 -190 13 -15 74 -39 107 -42 15 -1 9 -24 -44
-185 -99 -297 -232 -542 -388 -710 -49 -53 -57 -66 -40 -65 11 1 26 10 31 21
6 10 18 26 27 34 19 19 139 176 139 183 0 3 17 34 38 68 69 114 118 221 192
419 41 107 77 199 81 204 5 5 13 5 21 -1 20 -17 122 -69 158 -81 28 -10 41 -8
98 17 105 44 117 45 131 14 12 -26 23 -106 37 -266 l6 -67 41 -19 c23 -11 65
-22 92 -26 28 -4 62 -16 77 -26 40 -29 74 -23 139 21 44 30 69 40 98 40 36 0
40 -3 55 -40 19 -47 21 -270 5 -435 -5 -55 -12 -343 -15 -640 l-5 -540 -31
-27 c-17 -15 -112 -77 -212 -138 -99 -61 -241 -153 -315 -205 -107 -75 -138
-92 -152 -84 -34 18 -37 9 -8 -20 37 -37 36 -46 -2 -82 -41 -38 -100 -56 -135
-40 -24 11 -31 6 -132 -90 -59 -55 -136 -120 -172 -145 -36 -24 -84 -57 -108
-74 -52 -36 -59 -37 -74 -5 -13 29 -28 33 -29 8 -1 -39 -34 -77 -68 -81 -21
-2 -37 2 -42 9 -4 8 -11 10 -16 6 -4 -5 -1 -12 7 -17 12 -7 12 -12 2 -22 -6
-6 -12 -8 -12 -4 0 5 -9 -2 -19 -15 -17 -21 -22 -22 -41 -11 -19 12 -21 11
-16 -5 4 -13 -3 -23 -25 -35 -17 -10 -37 -18 -44 -18 -15 0 -35 -51 -35 -92 0
-16 7 -45 15 -65 8 -19 15 -43 15 -52 0 -9 14 -22 31 -30 23 -10 28 -16 18
-22 -11 -7 -11 -9 -1 -9 21 0 68 -48 82 -85 13 -32 17 -35 57 -35 37 0 43 -3
43 -21 0 -12 4 -17 11 -14 6 4 8 13 5 21 -3 8 -4 14 -3 14 13 -1 89 -29 80
-29 -7 -1 -13 -8 -13 -16 0 -11 11 -15 40 -15 22 0 40 -4 40 -10 0 -5 18 -10
40 -10 l40 0 0 -55 c0 -52 1 -55 25 -55 23 0 25 -4 25 -40 0 -29 4 -40 15 -40
11 0 15 11 15 40 0 29 4 40 15 40 12 0 15 -16 15 -80 0 -47 4 -80 10 -80 6 0
10 -60 10 -160 0 -100 -4 -160 -10 -160 -5 0 -10 -18 -10 -40 0 -38 -2 -40
-30 -40 -28 0 -30 -2 -30 -40 0 -36 -2 -40 -25 -40 -25 0 -25 1 -25 80 0 64
-3 80 -15 80 -11 0 -15 -11 -15 -40 0 -36 -2 -40 -25 -40 -22 0 -25 4 -25 40
0 29 -4 40 -15 40 -12 0 -15 -20 -15 -120 0 -100 3 -120 15 -120 11 0 15 -11
15 -40 0 -29 -4 -40 -15 -40 -11 0 -15 -11 -15 -40 0 -29 4 -40 15 -40 11 0
15 11 15 40 0 29 4 40 15 40 11 0 15 11 15 40 0 22 5 40 10 40 6 0 10 -18 10
-40 0 -29 4 -40 15 -40 11 0 15 -11 15 -40 l0 -40 40 0 40 0 0 -40 c0 -29 -4
-40 -15 -40 -11 0 -15 -11 -15 -40 0 -29 4 -40 15 -40 8 0 15 -6 15 -14 0 -8
6 -16 14 -19 11 -5 13 -23 9 -89 -6 -90 2 -106 10 -20 3 29 7 56 11 59 10 11
462 -48 488 -63 3 -2 30 -9 60 -14 66 -13 139 -4 131 16 -4 10 3 14 22 14 23
0 26 -2 15 -15 -11 -13 -8 -15 14 -15 23 0 27 -3 22 -22 -3 -13 -3 -17 0 -10
6 14 84 17 84 3 0 -5 -4 -11 -10 -13 -5 -1 1 -8 14 -14 l24 -11 7 316 c4 174
6 393 3 486 -3 94 -2 277 1 408 l6 238 60 33 c33 18 73 36 87 39 l27 7 1 -597
c0 -630 -3 -682 -54 -968 -8 -44 -17 -111 -21 -150 -3 -38 -13 -124 -22 -190
-14 -112 -14 -260 2 -340 13 -67 17 -177 6 -170 -6 3 -11 37 -11 76 0 38 -4
69 -8 69 -5 0 -7 15 -4 33 l4 32 -17 -30 c-9 -16 -23 -37 -31 -46 -8 -8 -14
-23 -14 -32 0 -9 -4 -18 -8 -21 -4 -2 -7 11 -7 29 1 19 -2 32 -7 29 -4 -3 -5
-22 -2 -42 9 -58 22 -339 24 -536 l2 -178 -33 -20 c-25 -15 -30 -16 -20 -4 12
14 10 16 -10 17 -22 0 -23 1 -4 8 11 5 27 6 35 4 13 -4 13 -3 0 5 -21 14 -190
26 -170 13 11 -8 11 -11 2 -11 -7 0 -15 7 -19 15 -4 11 -19 16 -47 15 -22 0
-126 11 -231 25 -104 13 -217 26 -250 29 l-60 6 70 -14 c39 -8 79 -15 90 -17
11 -1 0 -5 -25 -9 -44 -7 -44 -7 -9 -8 20 -1 42 -8 48 -16 7 -8 21 -12 31 -9
30 8 150 -55 150 -78 0 -11 -7 -19 -15 -19 -8 0 -15 -9 -15 -20 0 -11 -4 -20
-10 -20 -5 0 -10 -18 -10 -40 0 -29 -4 -40 -15 -40 -9 0 -15 9 -15 25 0 31
-11 32 -36 4 -14 -16 -15 -23 -6 -26 9 -4 12 -52 12 -198 0 -145 -3 -195 -12
-199 -10 -5 -10 -7 0 -12 6 -3 12 -21 12 -40 0 -19 5 -34 10 -34 6 0 10 -18
10 -40 0 -39 -1 -40 -35 -40 -24 0 -35 -5 -35 -15 0 -11 11 -15 40 -15 l40 0
0 55 c0 52 1 55 25 55 22 0 25 -4 25 -34 0 -19 -6 -37 -12 -40 -10 -5 -10 -7
0 -12 6 -3 12 -21 12 -40 0 -31 3 -34 30 -34 28 0 30 3 30 35 0 19 5 35 10 35
6 0 10 -16 10 -35 0 -19 4 -35 9 -35 6 0 11 -19 13 -42 l3 -43 58 -3 57 -3 0
-34 c0 -28 4 -35 20 -35 17 0 20 -7 20 -40 0 -33 -3 -40 -20 -40 -18 0 -20 -7
-20 -80 0 -64 -3 -80 -15 -80 -12 0 -15 16 -15 80 0 64 -3 80 -15 80 -12 0
-15 -16 -15 -80 0 -78 -1 -80 -25 -80 -23 0 -24 3 -27 78 l-3 77 -115 0 -115
1 113 -3 112 -4 0 -79 0 -80 60 0 60 0 0 -35 0 -35 -54 0 -55 0 -7 -80 c-6
-69 -9 -80 -25 -80 -15 0 -19 -7 -19 -35 0 -24 -5 -35 -15 -35 -10 0 -15 11
-15 35 0 24 -5 35 -15 35 -10 0 -15 -10 -15 -34 0 -19 -6 -37 -12 -39 -10 -4
-10 -6 0 -6 9 -1 12 -39 12 -156 0 -117 -3 -155 -12 -155 -7 0 -5 -5 5 -11 9
-6 26 -8 36 -4 10 3 26 3 35 -1 14 -5 16 -26 16 -154 0 -109 -3 -150 -12 -153
-7 -3 -1 -6 15 -6 l27 -1 0 80 c0 64 3 80 15 80 11 0 15 -11 15 -40 0 -22 5
-40 10 -40 15 0 12 -67 -2 -74 -10 -5 -10 -7 0 -12 6 -3 12 -21 12 -40 0 -24
5 -34 15 -34 10 0 15 11 15 35 0 24 5 35 15 35 10 0 15 -11 15 -35 0 -19 5
-35 10 -35 15 0 12 -77 -2 -83 -10 -4 -10 -6 0 -6 8 -1 12 -22 12 -70 0 -46
-4 -71 -12 -74 -10 -4 -10 -6 0 -6 8 -1 12 -18 12 -50 0 -41 -4 -53 -25 -69
-14 -11 -25 -25 -25 -31 0 -6 -7 -11 -15 -11 -12 0 -15 -16 -15 -80 0 -64 3
-80 15 -80 8 0 15 -4 15 -10 0 -5 6 -7 14 -4 8 3 19 -3 25 -15 14 -26 15 -301
1 -301 -6 0 -10 -45 -10 -115 0 -96 -3 -115 -15 -115 -11 0 -15 11 -15 40 0
39 -1 40 -35 40 -34 0 -35 -1 -35 -42 0 -28 -3 -38 -9 -29 -6 9 -11 10 -15 2
-4 -6 -17 -11 -28 -11 -19 0 -20 4 -15 45 5 34 2 54 -11 79 -26 48 -39 25 -31
-54 l6 -65 3 65 4 65 3 -57 c2 -32 0 -66 -6 -75 -8 -16 -11 -15 -20 9 -6 15
-19 46 -30 69 -11 23 -18 47 -14 53 3 6 3 8 -2 4 -11 -10 -34 23 -28 38 3 7
11 10 19 7 16 -6 17 10 8 70 -8 44 -29 45 -30 1 0 -16 -4 -36 -9 -43 -5 -10
-4 -12 3 -7 7 4 12 3 12 -3 0 -19 -18 -20 -35 -1 -9 10 -14 24 -9 31 4 7 3 10
-3 6 -14 -9 -37 19 -27 34 4 7 3 9 -4 5 -13 -8 -26 10 -17 24 5 8 12 7 23 -2
14 -10 14 -9 -1 8 -16 19 -16 23 -2 34 8 7 15 17 15 23 0 5 -9 2 -20 -8 -11
-10 -19 -23 -18 -29 6 -23 -13 -15 -40 16 -68 80 -192 260 -186 270 4 6 3 8
-3 5 -6 -4 -24 10 -39 31 -16 20 -46 56 -67 79 -23 25 -36 47 -31 54 4 7 3 9
-3 6 -10 -6 -146 142 -201 218 -13 18 -33 81 -52 163 -38 169 -72 267 -127
367 -86 157 -96 183 -108 296 -17 144 -34 179 -147 296 -30 32 -47 57 -42 64
4 7 3 9 -4 5 -17 -10 -80 72 -122 159 -56 115 -103 243 -94 256 4 7 3 9 -4 5
-6 -3 -15 8 -22 28 -11 34 -79 152 -108 188 -10 12 -36 43 -60 70 -23 27 -39
54 -36 60 4 6 3 8 -3 5 -14 -9 -116 120 -107 135 4 6 3 8 -3 5 -6 -4 -28 12
-48 36 -98 110 -266 277 -294 292 -17 9 -73 41 -124 72 -193 117 -261 154
-273 149 -8 -3 -13 -1 -11 5 1 6 -36 26 -83 44 -47 19 -76 27 -65 19 19 -16
19 -16 -10 -8 -16 4 -59 6 -94 5 -54 -2 -67 -6 -90 -30 -26 -27 -27 -29 -9
-40 14 -8 23 -8 38 1 22 14 41 2 20 -13 -11 -8 -8 -8 10 -3 14 4 28 11 31 15
3 5 14 2 25 -6 16 -12 17 -14 3 -15 -9 0 -19 -7 -23 -15 -4 -12 3 -15 32 -16
31 -2 33 -3 9 -6 -30 -5 -121 22 -147 43 -34 28 -466 215 -529 229 -55 13
-301 91 -301 96 0 3 26 6 58 6 48 0 52 -1 22 -7 -24 -5 -28 -8 -12 -9 13 0 35
-7 50 -15 15 -7 63 -24 106 -36 76 -21 81 -21 114 -5 41 19 34 30 -23 43 -37
8 -38 10 -15 16 17 5 76 -9 185 -42 88 -27 161 -48 163 -47 1 1 -3 37 -8 81
-15 106 -45 163 -138 262 -59 62 -101 121 -167 235 -142 244 -244 385 -298
414 -21 10 -51 15 -91 13 -92 -4 -96 -4 -171 16 -57 15 -112 18 -300 18 -165
1 -236 5 -252 13 -33 19 -58 61 -82 137 -43 133 -98 217 -159 243 -35 14 -226
31 -462 39 -177 7 -635 -33 -940 -81 l-225 -35 -17 22 c-32 42 -117 222 -147
313 -74 223 -126 644 -126 1011 l0 211 56 64 c148 170 163 250 102 552 -25
127 -25 128 -9 232 17 110 38 184 62 223 8 13 12 32 9 42 -3 10 1 30 9 43 9
13 19 59 23 103 5 67 10 83 31 103 l25 23 -22 17 c-20 16 -21 20 -10 71 6 30
22 72 35 92 32 49 31 68 -2 68 -25 0 -26 2 -19 38 4 20 22 70 41 111 44 95 44
117 2 126 -18 4 -41 16 -51 26 -16 17 -16 20 -3 25 9 3 16 11 16 16 0 6 14 27
30 48 30 38 30 39 10 50 -17 9 -20 8 -21 -12 l0 -23 -11 22 c-6 12 -37 39 -69
59 l-59 37 0 64 c0 59 4 69 41 126 23 34 54 75 68 91 l26 29 -25 -6 c-48 -12
-162 14 -207 47 -23 17 -43 36 -43 43 0 6 24 40 53 75 76 90 101 125 136 192
36 68 38 80 14 68 -48 -25 -291 -21 -286 5 4 17 -53 49 -120 68 -32 9 -61 23
-64 31 -13 35 52 269 93 331 21 33 18 46 -8 29 -55 -34 -227 -46 -358 -25 -36
6 -105 12 -155 13 -63 2 -101 9 -127 21 -35 17 -38 22 -38 63 l0 45 -115 -7
c-102 -7 -115 -6 -115 9 0 17 -26 15 -125 -10 -60 -15 -115 -18 -133 -7 -9 6
-15 51 -19 146 l-6 137 -31 -30 c-50 -47 -152 -108 -235 -140 -102 -39 -206
-65 -228 -56 -16 5 -13 10 17 36 32 27 33 30 10 23 -14 -3 -41 -13 -60 -21
-35 -14 -170 -43 -203 -43 -19 0 -21 5 -62 121 -42 121 -45 123 -92 53 -48
-70 -115 -134 -200 -192 -52 -35 -63 -40 -71 -27 -7 13 -15 10 -53 -20 -24
-19 -49 -35 -55 -35 -18 0 -43 34 -60 83 -9 26 -20 47 -25 47 -5 0 -22 -19
-37 -42 -15 -23 -58 -74 -96 -113 l-70 -70 -35 77 c-20 43 -39 77 -43 78 -4 0
-17 -18 -28 -40 -11 -22 -25 -40 -30 -40 -5 0 -23 -30 -41 -67 l-32 -67 -22
28 c-14 18 -24 24 -27 16 -3 -10 -10 -10 -31 2 -40 20 -287 285 -305 327 l-16
36 -7 -75 c-3 -41 -17 -124 -29 -185 -14 -69 -20 -127 -17 -156 5 -36 1 -56
-19 -94 -19 -39 -24 -64 -24 -127 0 -78 0 -79 -22 -72 -45 13 -100 45 -138 81
l-40 35 0 -59 c0 -33 5 -84 11 -115 11 -53 10 -57 -21 -112 l-33 -58 11 -101
c6 -56 9 -103 6 -106 -2 -2 -19 -4 -37 -4 -52 0 -140 46 -200 105 l-55 53 5
-55 c3 -30 11 -84 19 -119 13 -58 13 -65 -3 -76 -15 -11 -15 -15 5 -46 32 -50
56 -103 97 -208 42 -110 42 -111 -58 -111 l-67 0 20 -40 c11 -21 20 -46 20
-55 0 -9 14 -43 32 -75 39 -69 33 -82 -42 -100 -28 -7 -50 -15 -50 -19 0 -12
62 -71 106 -102 52 -36 58 -51 32 -84 l-20 -26 21 -23 c11 -12 44 -28 71 -35
65 -17 82 -42 86 -128 2 -50 7 -70 24 -88 19 -20 21 -37 26 -161 5 -143 9
-166 50 -271 13 -34 40 -120 60 -190 29 -105 34 -138 29 -184 -5 -45 -1 -71
21 -138 16 -48 23 -86 18 -91 -5 -5 -56 -34 -114 -66 -107 -57 -196 -131 -206
-171 -4 -16 -15 -23 -37 -25 -22 -2 -36 -11 -47 -30 -13 -25 -13 -32 5 -85 18
-52 24 -59 57 -68 38 -11 50 -24 169 -200 66 -97 110 -142 147 -152 24 -6 136
1 212 13 37 6 40 5 40 -17 0 -37 48 -206 77 -274 15 -33 59 -109 98 -170 40
-60 96 -155 125 -210 68 -128 94 -166 210 -304 245 -292 283 -340 309 -391 45
-87 81 -220 61 -220 -6 0 -10 -7 -10 -16 0 -8 4 -13 9 -10 13 8 27 -12 44 -64
42 -123 57 -139 93 -99 17 19 19 19 31 3 7 -10 13 -32 13 -48 1 -26 2 -28 11
-13 5 9 17 17 25 17 8 0 29 7 46 16 25 13 35 13 60 3 21 -8 35 -9 51 -1 12 6
34 13 49 16 23 5 25 3 20 -16 -5 -19 -2 -21 30 -15 20 3 40 1 45 -4 11 -11 56
5 85 29 14 12 18 11 27 -7 6 -11 13 -43 15 -71 4 -47 3 -52 -20 -60 -125 -48
-267 -166 -359 -300 -28 -40 -89 -118 -136 -173 -148 -175 -376 -488 -421
-577 l-29 -59 -97 -22 c-53 -12 -141 -37 -195 -55 -53 -19 -134 -43 -180 -53
-45 -11 -125 -36 -177 -56 -52 -20 -101 -38 -107 -40 -18 -6 -16 -70 3 -134 8
-29 38 -99 65 -154 27 -55 48 -102 46 -103 -1 -1 -60 -41 -132 -89 -71 -49
-162 -110 -201 -137 -82 -55 -249 -137 -344 -168 -195 -63 -628 -99 -847 -69
-141 19 -281 67 -368 127 -48 33 -48 32 20 -33 142 -137 304 -240 665 -425
146 -75 358 -187 471 -250 l205 -114 -81 -72 c-77 -69 -84 -79 -125 -175 -24
-55 -72 -144 -108 -197 -63 -94 -65 -99 -73 -182 -5 -50 -4 -164 2 -275 21
-373 -12 -525 -174 -793 l-50 -84 6 -81 c7 -108 51 -273 132 -499 37 -101 78
-214 92 -253 31 -86 27 -146 -16 -274 -16 -47 -43 -141 -60 -208 -45 -181 -51
-191 -173 -259 -216 -120 -294 -168 -330 -202 l-38 -36 2 -215 c1 -237 -13
-345 -52 -386 -11 -12 -93 -59 -183 -105 -188 -98 -240 -143 -302 -260 l-40
-75 -1 -135 c-1 -205 -24 -319 -108 -522 -58 -139 -62 -176 -36 -370 l23 -168
6153 0 c3410 0 6154 4 6156 9 2 4 86 55 188 113 306 174 340 195 472 286 226
156 320 225 354 259 31 30 33 38 28 74 -7 41 20 315 38 383 7 27 33 63 94 125
93 98 114 136 114 213 0 57 -16 93 -130 298 -32 58 -89 168 -127 244 -60 123
-68 146 -68 195 1 95 27 406 35 414 4 5 7 -10 6 -32 0 -29 5 -46 21 -60 11
-11 23 -26 26 -33 3 -11 8 -11 26 0 16 9 21 9 21 0 0 -7 5 -5 13 5 17 22 65
39 69 25 3 -9 29 -9 101 0 140 17 137 18 137 -22 0 -30 -4 -36 -40 -50 -22 -9
-63 -16 -91 -16 -52 0 -94 -15 -84 -29 2 -5 -2 -14 -10 -21 -12 -10 -15 -9
-15 4 0 24 -15 20 -49 -15 -35 -34 -35 -35 -21 -52 6 -7 17 -21 24 -32 12 -16
16 -17 30 -6 14 12 16 10 16 -13 0 -23 -4 -26 -35 -26 -39 0 -44 -9 -16 -34
18 -16 51 -13 51 5 0 5 18 9 40 9 30 0 40 4 40 16 0 14 17 15 160 9 l160 -8 0
6562 0 6561 -901 0 -900 0 2 -81z m-8043 -1807 c6 -1 12 -8 12 -15 0 -16 58
-72 84 -81 14 -5 16 -10 8 -18 -15 -15 -4 -38 16 -30 15 5 15 4 3 -11 -9 -11
-10 -21 -4 -29 6 -7 22 -44 36 -83 14 -38 32 -83 38 -100 7 -16 11 -36 10 -43
-1 -7 5 -15 13 -18 11 -4 12 -13 6 -35 -5 -16 -5 -31 0 -34 5 -3 7 -11 4 -19
-3 -7 5 -17 18 -23 l23 -11 -22 -9 -23 -8 25 -28 c23 -24 24 -31 3 -28 -4 0
-5 -6 -2 -14 7 -17 47 -30 63 -21 6 4 13 -5 17 -19 4 -17 13 -25 29 -25 15 0
25 -7 28 -21 4 -14 10 -18 19 -13 7 4 5 -2 -5 -13 -18 -20 -17 -21 6 -39 13
-11 22 -25 19 -32 -2 -6 3 -12 12 -12 23 0 20 -16 -9 -38 -32 -25 -32 -42 0
-42 l25 0 -15 -37 c-9 -21 -20 -39 -25 -41 -6 -2 -10 -32 -10 -67 0 -73 -10
-85 -75 -93 -40 -4 -45 -2 -45 16 0 16 -12 24 -52 38 -29 10 -57 17 -61 16 -4
-1 -15 5 -24 14 -10 10 -24 13 -37 9 -12 -3 -60 -11 -108 -17 -75 -9 -92 -8
-122 6 -38 18 -59 21 -36 6 11 -8 7 -9 -15 -4 -16 4 -32 8 -34 10 -3 3 -38
-10 -171 -66 -41 -18 -115 -46 -165 -62 -49 -17 -103 -36 -120 -43 -66 -30
-108 -45 -112 -41 -3 2 5 7 16 11 12 4 18 11 15 17 -5 7 -1 9 8 5 25 -9 30 41
6 54 -12 6 -17 17 -14 26 8 19 -4 64 -14 58 -4 -3 -10 2 -14 10 -3 8 -2 15 3
15 10 0 26 67 22 89 -2 8 4 20 11 25 20 15 30 56 12 49 -17 -6 -18 9 -3 24 15
15 14 86 -2 111 -13 20 -5 77 10 68 28 -18 10 115 -20 151 -32 37 -63 203 -39
203 6 0 10 20 10 44 0 26 6 48 15 56 8 7 12 16 9 21 -3 5 8 21 23 35 15 14 27
33 25 41 -2 8 6 17 17 20 12 3 21 12 21 20 0 9 6 13 15 9 8 -3 14 0 12 6 -1 7
6 14 17 16 11 2 16 0 12 -7 -5 -7 -1 -8 9 -5 22 9 10 17 -25 20 -18 1 -27 -2
-24 -8 4 -6 -2 -8 -16 -3 -15 5 -20 4 -16 -4 8 -12 5 -13 -36 -16 -45 -3 -21
23 33 34 27 6 66 18 85 26 32 13 35 13 24 0 -17 -21 -5 -19 16 2 13 13 34 18
85 18 37 0 66 2 64 5 -2 3 18 5 43 6 43 0 185 14 189 17 2 3 155 1 171 -1z
m157 -1158 c22 -3 52 -6 67 -5 15 1 30 -4 33 -10 4 -5 18 -15 32 -20 19 -7 23
-12 14 -23 -6 -7 -8 -16 -4 -19 8 -9 -20 -9 -41 -1 -9 3 -13 10 -10 15 3 5 -2
6 -10 3 -9 -3 -16 -11 -16 -16 0 -6 -12 -8 -27 -4 -16 3 -23 3 -16 0 13 -6 6
-34 -9 -34 -5 0 -6 4 -3 10 7 12 -22 2 -50 -17 -11 -7 -28 -13 -38 -13 -10 0
-25 -7 -33 -15 -9 -8 -21 -15 -27 -15 -7 0 1 12 16 26 18 16 34 23 46 19 20
-6 39 11 26 23 -4 4 -10 2 -12 -5 -5 -14 -33 -6 -33 9 0 6 7 8 15 4 8 -3 15
-1 15 4 0 10 -14 14 -38 11 -8 -1 -19 5 -26 14 -6 9 -18 15 -25 13 -28 -7 -20
18 11 34 38 20 67 27 88 22 8 -1 33 -6 55 -10z m98 -101 c-7 -2 -21 -2 -30 0
-10 3 -4 5 12 5 17 0 24 -2 18 -5z m-73 -63 c-11 -11 -20 -27 -20 -35 0 -8 -4
-15 -10 -15 -5 0 -10 7 -10 16 0 27 20 54 40 54 20 0 20 0 0 -20z m1164 8 c-5
-8 -2 -9 9 -5 10 4 17 2 17 -4 0 -6 -9 -9 -20 -6 -24 6 -26 -5 -5 -23 13 -11
13 -15 3 -21 -20 -13 -28 -11 -22 6 7 17 -11 21 -22 4 -3 -6 -15 -8 -27 -5
-11 3 -37 -4 -58 -15 -50 -25 -50 -19 1 15 24 16 46 23 57 19 10 -3 15 -3 11
2 -4 4 7 16 25 26 39 22 40 22 31 7z m97 -16 c-12 -40 -50 -110 -50 -92 -1 16
45 120 53 120 2 0 1 -13 -3 -28z m-1328 3 c4 -8 2 -17 -3 -20 -6 -4 -10 -15
-10 -26 0 -10 -4 -19 -10 -19 -5 0 -10 9 -10 19 0 11 -4 23 -10 26 -5 3 -10
13 -10 21 0 19 46 18 53 -1z m118 3 c1 -7 3 -24 4 -38 3 -33 -4 -50 -22 -50
-13 0 -13 3 -3 15 7 8 10 31 8 50 -2 19 0 35 4 35 4 0 9 -6 9 -12z m194 2 c-3
-5 -12 -10 -18 -10 -7 0 -6 4 3 10 19 12 23 12 15 0z m1075 6 c0 -3 -4 -8 -10
-11 -5 -3 -10 -1 -10 4 0 6 5 11 10 11 6 0 10 -2 10 -4z m-1216 -21 c-4 -8
-10 -15 -15 -15 -5 0 -9 7 -9 15 0 8 7 15 15 15 9 0 12 -6 9 -15z m-100 -36
c-13 -26 -14 -33 -2 -40 10 -7 9 -9 -4 -9 -10 0 -18 4 -18 9 0 19 23 71 31 71
5 0 2 -14 -7 -31z m-184 11 c0 -5 -4 -10 -10 -10 -5 0 -10 5 -10 10 0 6 5 10
10 10 6 0 10 -4 10 -10z m390 -20 c0 -5 -2 -10 -4 -10 -3 0 -8 5 -11 10 -3 6
-1 10 4 10 6 0 11 -4 11 -10z m901 0 c11 0 0 -30 -18 -52 -20 -23 -43 -11 -43
22 0 29 14 42 38 34 8 -2 18 -4 23 -4z m-941 -15 c-14 -17 -30 -20 -30 -6 0 5
8 12 18 14 9 3 19 5 21 6 2 0 -2 -6 -9 -14z m980 -21 c0 -14 -4 -23 -10 -19
-5 3 -10 15 -10 26 0 10 5 19 10 19 6 0 10 -12 10 -26z m27 4 c-3 -8 -6 -5 -6
6 -1 11 2 17 5 13 3 -3 4 -12 1 -19z m-1062 -7 c-3 -5 3 -11 12 -13 10 -2 -7
-12 -39 -21 -73 -22 -74 -22 -43 9 14 14 32 23 40 20 8 -3 15 -1 15 4 0 6 5
10 11 10 5 0 8 -4 4 -9z m90 -1 c-11 -5 -27 -9 -35 -9 -9 0 -8 4 5 9 11 5 27
9 35 9 9 0 8 -4 -5 -9z m-385 -20 c0 -5 -12 -10 -27 -9 -25 0 -26 1 -8 9 27
12 35 12 35 0z m1304 -15 c3 -9 0 -15 -9 -15 -8 0 -15 7 -15 15 0 8 4 15 9 15
5 0 11 -7 15 -15z m-479 -35 c-3 -5 -14 -10 -23 -9 -14 0 -13 2 3 9 27 11 27
11 20 0z m462 -52 c-2 -13 -4 -3 -4 22 0 25 2 35 4 23 2 -13 2 -33 0 -45z
m-1137 -52 c0 -84 -6 -106 -27 -106 -8 0 -11 -4 -8 -10 3 -5 1 -10 -5 -10 -7
0 -9 12 -4 38 4 20 7 45 6 55 0 9 3 17 9 17 15 0 10 27 -6 34 -11 4 -15 -2
-15 -20 0 -14 -4 -23 -9 -20 -5 3 -14 0 -20 -8 -6 -7 -24 -16 -39 -20 -44 -9
-54 -20 -44 -47 11 -28 0 -70 -12 -50 -4 7 -5 24 -1 38 5 21 3 24 -10 19 -12
-4 -20 3 -30 27 -17 41 -84 119 -96 111 -5 -3 -9 0 -9 6 0 11 40 5 70 -11 9
-4 23 -3 33 2 13 8 17 6 17 -9 0 -15 -5 -18 -25 -14 -28 5 -33 -9 -9 -32 18
-19 34 -21 34 -5 0 7 12 10 30 7 17 -3 30 -1 30 4 0 4 -6 8 -12 8 -15 1 61 39
77 40 6 0 -3 -9 -20 -20 -33 -22 -29 -26 10 -8 14 6 25 17 25 23 0 7 11 11 28
9 15 -2 19 -1 8 2 -15 5 -16 8 -5 15 26 16 29 9 29 -65z m490 48 c0 -4 -10
-15 -22 -25 -19 -18 -14 -25 15 -20 12 2 8 -17 -5 -21 -9 -3 -8 -10 5 -22 9
-10 22 -27 29 -39 12 -23 11 -105 -2 -122 -4 -5 -10 -47 -14 -93 -5 -64 -11
-87 -27 -103 -13 -13 -18 -27 -14 -42 4 -14 3 -18 -3 -9 -6 9 -12 1 -21 -28
-6 -22 -16 -40 -21 -40 -6 0 -9 -3 -8 -7 6 -19 -26 -73 -42 -73 -13 0 -19 -11
-24 -40 -3 -22 -11 -40 -16 -40 -6 0 -15 -12 -20 -26 -6 -15 -20 -40 -32 -57
-13 -18 -16 -27 -7 -22 10 6 10 3 -2 -11 -9 -10 -20 -34 -24 -52 -4 -18 -12
-38 -19 -45 -6 -6 -20 -40 -30 -75 -11 -34 -25 -67 -33 -73 -7 -6 -13 -19 -13
-29 0 -24 -27 -87 -39 -92 -5 -1 -11 -15 -13 -30 -2 -15 -7 -30 -11 -34 -11
-11 -8 -26 3 -19 20 13 9 -14 -13 -32 -13 -10 -22 -23 -20 -29 5 -15 -43 -71
-68 -79 -10 -4 -17 -10 -14 -15 2 -4 -4 -19 -15 -33 -11 -14 -20 -28 -20 -32
0 -16 -44 -45 -67 -45 -14 0 -36 -9 -50 -20 -14 -11 -34 -20 -43 -20 -10 0
-23 -7 -30 -15 -7 -8 -22 -15 -34 -15 -17 0 -18 -2 -6 -10 12 -8 11 -10 -6
-10 -13 0 -24 -8 -27 -20 -8 -29 -89 -27 -185 6 -102 35 -209 53 -309 54 -45
0 -85 5 -88 10 -4 6 -4 24 0 40 6 27 8 29 28 16 12 -8 40 -17 62 -20 39 -6 39
-6 15 8 -14 9 -32 15 -41 16 -20 0 -69 23 -69 32 0 4 5 10 11 13 6 5 5 11 -5
18 -13 10 -14 19 -5 52 6 22 11 46 11 53 1 6 5 12 9 12 5 0 6 13 3 29 -5 22
-1 32 17 45 l23 16 -22 0 c-13 0 -21 4 -18 9 3 5 28 9 54 9 71 0 115 24 145
80 32 58 50 156 38 198 -5 17 -6 37 -2 43 5 7 39 16 77 22 153 22 346 103 426
180 l48 46 -6 84 -6 84 81 58 c44 32 102 82 127 110 l47 52 -7 -45 c-3 -25 -9
-61 -12 -80 -6 -34 -5 -34 30 20 48 74 55 92 66 167 7 54 15 73 47 111 40 47
122 100 176 112 43 10 57 11 57 4z m920 -74 c-11 -7 -6 -10 22 -10 36 0 50
-10 54 -39 2 -9 -7 -12 -32 -9 -34 4 -47 -8 -19 -18 8 -4 12 -10 9 -15 -3 -5
0 -9 7 -9 7 0 10 -2 8 -4 -2 -2 -33 2 -69 9 -36 7 -58 14 -50 15 11 1 9 4 -5
10 -19 8 -19 9 3 9 24 1 30 16 10 24 -7 3 -4 6 6 6 11 1 16 4 12 8 -3 4 4 13
16 20 27 14 50 17 28 3z m-1910 -20 c0 -5 -4 -10 -10 -10 -5 0 -10 5 -10 10 0
6 5 10 10 10 6 0 10 -4 10 -10z m2146 -87 c24 -108 25 -258 1 -298 -10 -16
-16 -21 -12 -11 26 85 25 169 -4 297 -11 45 -14 89 -7 89 2 0 12 -35 22 -77z
m-1872 41 c5 -14 4 -15 -9 -4 -17 14 -19 20 -6 20 5 0 12 -7 15 -16z m1757
-11 c-12 -20 -14 -14 -5 12 4 9 9 14 11 11 3 -2 0 -13 -6 -23z m-1597 -22 c3
-4 -6 -6 -19 -3 -14 2 -25 6 -25 8 0 8 39 4 44 -5z m-1069 -90 c-3 -6 -14 -11
-23 -11 -13 0 -13 2 4 14 21 15 30 14 19 -3z m103 -111 c40 -75 58 -89 94 -67
23 15 41 -6 35 -40 -3 -17 1 -23 14 -23 12 0 19 -7 19 -20 0 -22 -37 -28 -69
-10 -25 13 -152 230 -151 257 1 10 8 -2 58 -97z m839 58 c-3 -7 -5 -2 -5 12 0
14 2 19 5 13 2 -7 2 -19 0 -25z m50 -60 c-2 -13 -4 -5 -4 17 -1 22 1 32 4 23
2 -10 2 -28 0 -40z m-40 -40 c-2 -13 -4 -3 -4 22 0 25 2 35 4 23 2 -13 2 -33
0 -45z m-967 37 c0 -16 -9 -19 -34 -9 -20 8 -11 24 15 24 10 0 19 -7 19 -15z
m33 -77 c6 -22 5 -22 -8 -4 -17 22 -20 40 -6 32 5 -3 11 -16 14 -28z m98 -135
c16 -18 26 -33 22 -33 -12 1 -56 50 -77 85 l-17 30 21 -25 c12 -14 35 -40 51
-57z m-1079 35 c9 -7 31 -49 49 -93 18 -44 39 -89 46 -100 20 -29 16 -34 -18
-25 -17 5 -109 12 -205 16 -96 4 -174 11 -174 16 0 20 31 67 62 93 37 31 183
105 208 105 9 0 23 -6 32 -12z m1250 -23 c6 -14 17 -25 25 -25 9 0 13 -10 11
-30 -2 -33 -5 -35 -28 -20 -13 8 -12 10 3 10 19 0 23 15 7 25 -13 8 -42 -14
-35 -25 3 -5 1 -11 -5 -15 -5 -3 -10 -2 -10 4 0 5 -6 16 -12 23 -14 15 -38 55
-38 63 0 2 6 2 14 -1 8 -3 17 -1 21 5 11 19 35 12 47 -14z m695 3 c-3 -8 -6
-5 -6 6 -1 11 2 17 5 13 3 -3 4 -12 1 -19z m-942 -12 c28 -13 84 -54 125 -90
43 -38 105 -81 146 -101 46 -22 85 -49 108 -76 37 -44 41 -60 25 -94 -7 -16
-8 -12 -5 15 3 19 2 30 0 23 -3 -6 -25 -17 -50 -24 -24 -8 -43 -18 -40 -24 2
-6 -5 -17 -16 -24 -18 -11 -18 -14 -4 -35 8 -13 13 -26 10 -29 -11 -10 -269 6
-294 18 -16 8 -33 9 -47 4 -12 -4 -32 -6 -44 -4 -30 6 -71 45 -61 59 4 6 7 36
6 66 -1 30 2 64 7 75 5 11 17 55 28 98 11 43 23 82 26 86 3 5 -1 12 -7 14 -10
4 -10 7 0 15 14 10 13 33 -3 44 -24 18 45 6 90 -16z m2465 -2 c0 -13 -3 -14
-14 -5 -11 9 -15 8 -20 -5 -4 -9 -9 -14 -13 -11 -8 9 17 37 33 37 8 0 14 -7
14 -16z m-3391 -64 c0 -10 -3 -8 -9 5 -12 27 -12 43 0 25 5 -8 9 -22 9 -30z
m3293 8 c-29 -11 -32 -9 -15 12 13 14 19 16 25 7 4 -7 1 -15 -10 -19z m-2158
-48 c19 -17 51 -37 73 -44 24 -10 31 -15 17 -15 -22 -1 -101 45 -123 72 -21
27 -5 20 33 -13z m471 -10 c-3 -5 -12 -10 -18 -10 -7 0 -6 4 3 10 19 12 23 12
15 0z m7765 7 c0 -2 -10 -12 -21 -23 -22 -19 -22 -19 -8 4 12 19 29 30 29 19z
m-80 -57 c0 -5 -5 -10 -11 -10 -5 0 -7 5 -4 10 3 6 8 10 11 10 2 0 4 -4 4 -10z
m-8013 -6 c-3 -3 -12 -4 -19 -1 -8 3 -5 6 6 6 11 1 17 -2 13 -5z m7898 -54 c3
-5 1 -10 -4 -10 -6 0 -11 5 -11 10 0 6 2 10 4 10 3 0 8 -4 11 -10z m-9557 -22
c-2 -6 -10 -14 -16 -16 -7 -2 -10 2 -6 12 7 18 28 22 22 4z m441 -40 c6 -29
20 -114 31 -188 33 -221 35 -196 -15 -209 -24 -6 -78 -11 -119 -11 -72 0 -78
2 -113 34 -21 19 -58 67 -82 107 -24 41 -51 85 -60 99 -9 13 -11 21 -4 17 7
-4 14 1 18 14 5 16 2 27 -14 38 -18 14 -20 22 -13 61 l8 45 127 12 c70 7 147
16 170 21 23 6 45 10 49 11 4 1 11 -23 17 -51z m-454 -18 c3 -5 1 -10 -4 -10
-6 0 -11 5 -11 10 0 6 2 10 4 10 3 0 8 -4 11 -10z m725 -275 c0 -2 -22 -16
-50 -30 -27 -14 -50 -23 -50 -20 0 2 21 16 48 29 53 28 52 28 52 21z m9190 -5
c11 -7 7 -10 -17 -10 -18 0 -33 5 -33 10 0 13 30 13 50 0z m-9204 -71 c-9 -19
-13 -24 -10 -11 6 26 6 26 -32 8 -16 -7 -42 -16 -59 -20 -22 -4 -18 0 15 14
25 11 56 26 70 33 14 8 26 13 28 12 2 -2 -4 -18 -12 -36z m2810 -105 c-3 -9
-2 -12 5 -9 5 4 34 -10 64 -30 48 -33 57 -36 84 -27 23 8 32 7 42 -4 9 -11 8
-14 -2 -15 -10 0 -10 -2 -2 -6 10 -3 10 -9 0 -24 -9 -14 -9 -22 -1 -27 7 -4
14 -68 19 -162 11 -223 12 -229 27 -300 21 -94 14 -202 -23 -350 -5 -19 -9
-50 -9 -67 0 -18 -4 -33 -10 -33 -5 0 -10 -4 -10 -9 0 -12 -59 -71 -71 -71 -5
0 -9 7 -9 15 0 8 -16 22 -36 30 -43 18 -63 41 -64 73 0 12 -4 22 -10 22 -5 0
-10 -5 -10 -11 0 -5 -4 -7 -10 -4 -17 10 -12 45 7 45 16 0 16 1 0 13 -27 20
-46 81 -53 164 -9 119 -9 173 -1 231 5 37 5 52 -3 47 -5 -3 -10 -4 -10 -1 0 2
-3 13 -6 23 -4 11 -3 14 3 6 5 -6 8 8 8 37 0 27 -4 43 -8 37 -4 -7 -6 4 -3 23
12 84 26 235 27 289 1 14 8 25 20 28 18 5 37 53 31 76 -1 4 3 7 9 7 6 0 8 -7
5 -16z m218 -49 c-4 -8 -10 -12 -15 -9 -11 6 -2 24 11 24 5 0 7 -7 4 -15z
m7183 -37 c-3 -8 -6 -5 -6 6 -1 11 2 17 5 13 3 -3 4 -12 1 -19z m-8785 -367
c-76 -65 -163 -127 -192 -136 -11 -4 -20 -11 -20 -16 0 -5 -6 -9 -14 -9 -8 0
-17 -6 -20 -12 -5 -10 -7 -10 -12 0 -3 6 -10 9 -16 6 -13 -8 -149 -24 -236
-29 -58 -3 -62 -1 -57 16 4 13 2 19 -9 19 -9 0 -16 7 -16 15 0 8 5 15 11 15 5
0 7 5 4 11 -4 6 -13 8 -21 5 -25 -10 -15 3 16 19 35 18 44 19 34 3 -4 -7 -3
-8 5 -4 6 4 9 11 6 16 -6 9 64 44 123 59 23 7 90 16 150 21 59 5 134 17 167
26 33 9 80 22 105 29 25 7 48 11 52 8 4 -2 -23 -30 -60 -62z m1285 -3 c-3 -8
-6 -5 -6 6 -1 11 2 17 5 13 3 -3 4 -12 1 -19z m7580 -745 c-3 -10 -5 -2 -5 17
0 19 2 27 5 18 2 -10 2 -26 0 -35z m-17 -3 c0 -22 -3 -23 -49 -14 -46 10 -40
34 9 34 33 0 40 -3 40 -20z m-5470 -740 c0 -5 -9 -10 -21 -10 -11 0 -17 5 -14
10 3 6 13 10 21 10 8 0 14 -4 14 -10z m-990 -85 c0 -8 -3 -15 -8 -15 -13 0
-62 -50 -61 -63 0 -9 2 -9 6 1 5 13 23 17 23 5 0 -5 -5 -15 -10 -23 -9 -13
-11 -13 -20 0 -15 23 -12 33 21 73 32 39 49 47 49 22z m6627 -77 c-3 -7 -5 -2
-5 12 0 14 2 19 5 13 2 -7 2 -19 0 -25z m-60 -55 c-3 -10 -5 -4 -5 12 0 17 2
24 5 18 2 -7 2 -21 0 -30z m62 6 c1 13 3 22 5 20 7 -7 38 -494 33 -520 -3 -15
-5 -7 -7 21 l-2 45 -9 -44 c-9 -46 -31 -83 -28 -46 1 11 1 38 -1 60 l-3 40 -8
-40 c-7 -37 -7 -36 -5 13 2 30 0 48 -5 41 -5 -8 -9 2 -12 26 -2 22 -3 16 -1
-13 2 -35 -1 -50 -8 -46 -7 5 -8 31 -3 78 9 92 11 117 24 261 12 141 11 137
21 105 l8 -25 1 24z m-44 -177 c-10 -11 -12 4 -6 78 l6 75 3 -74 c2 -40 0 -76
-3 -79z m-3998 116 c-18 -6 -37 -7 -49 -1 -15 7 -9 9 29 10 44 1 46 0 20 -9z
m-267 -20 c25 -9 108 -35 185 -58 176 -53 394 -136 523 -200 55 -28 105 -50
111 -50 23 0 9 -17 -24 -30 -19 -8 -35 -18 -35 -23 0 -5 -7 -6 -16 -3 -8 3
-13 2 -9 -3 3 -5 -21 -24 -52 -42 -32 -18 -72 -43 -90 -57 -18 -13 -37 -20
-44 -16 -7 4 -9 3 -6 -3 7 -11 -4 -24 -74 -89 -52 -49 -149 -151 -149 -156 0
-3 -18 -24 -41 -49 -22 -24 -54 -67 -70 -96 -17 -29 -35 -51 -40 -48 -5 4 -6
0 -3 -8 3 -8 -1 -14 -10 -14 -12 0 -15 10 -11 49 3 26 1 48 -4 48 -8 0 -18 45
-28 135 -3 27 -9 59 -14 70 -6 17 -8 15 -8 -11 -1 -16 -5 -34 -10 -40 -5 -5
-12 -18 -15 -29 -3 -11 -4 8 -2 43 1 43 -1 59 -8 52 -16 -16 -36 -91 -36 -138
0 -24 -5 -53 -12 -65 -12 -20 -14 -45 -21 -185 -2 -53 -2 -53 -20 -31 -17 21
-18 21 -32 3 -7 -10 -19 -36 -26 -56 -7 -21 -15 -38 -19 -38 -4 0 -12 -11 -18
-25 -7 -15 -20 -25 -32 -25 -11 0 -20 -7 -20 -15 0 -8 7 -15 16 -15 13 0 14
-3 4 -15 -7 -8 -16 -12 -21 -9 -15 9 -48 -6 -54 -25 -3 -12 -16 -18 -39 -19
-31 -1 -35 2 -51 45 -10 26 -30 57 -44 69 -15 14 -20 23 -12 24 8 0 4 8 -10
19 -22 18 -25 18 -30 3 -4 -11 -9 -2 -13 26 -8 42 -26 59 -26 23 0 -11 -4 -23
-10 -26 -6 -4 -10 5 -10 19 0 27 -14 35 -24 14 -3 -7 -3 1 0 17 4 25 3 27 -6
13 -6 -10 -17 -18 -24 -18 -14 0 -21 -34 -32 -164 -5 -60 -3 -72 12 -83 17
-12 16 -13 -4 -13 -12 0 -22 -4 -22 -10 0 -5 9 -10 19 -10 11 0 23 -5 27 -11
7 -12 -8 -9 -92 22 -54 21 -127 69 -103 69 8 0 20 -5 27 -12 7 -7 12 -9 12 -4
0 12 -27 36 -41 36 -10 0 -10 3 -1 12 9 9 19 5 42 -17 16 -16 30 -25 30 -21 0
13 -37 56 -43 50 -3 -4 -13 11 -22 32 -19 47 -22 243 -5 426 14 145 8 218 -20
225 -9 3 -27 18 -39 34 l-22 30 22 35 c43 70 356 291 524 370 87 41 205 86
215 81 3 -1 25 -10 50 -19z m217 -4 c-3 -3 -12 -4 -19 -1 -8 3 -5 6 6 6 11 1
17 -2 13 -5z m-3620 -36 c-3 -8 -6 -5 -6 6 -1 11 2 17 5 13 3 -3 4 -12 1 -19z
m3670 16 c-3 -3 -12 -4 -19 -1 -8 3 -5 6 6 6 11 1 17 -2 13 -5z m38 -14 c-3
-5 -10 -10 -16 -10 -5 0 -9 5 -9 10 0 6 7 10 16 10 8 0 12 -4 9 -10z m3942
-172 c-3 -7 -5 -2 -5 12 0 14 2 19 5 13 2 -7 2 -19 0 -25z m-3205 -22 c19 1
23 -2 15 -11 -12 -13 -87 2 -87 18 0 4 10 5 23 0 12 -4 34 -7 49 -7z m58 -10
c0 -2 -7 -7 -16 -10 -8 -3 -12 -2 -9 4 6 10 25 14 25 6z m-243 -31 c0 -17 -13
-20 -21 -6 -4 5 0 12 6 14 7 3 13 6 14 6 0 1 1 -6 1 -14z m40 9 c-3 -3 -12 -4
-19 -1 -8 3 -5 6 6 6 11 1 17 -2 13 -5z m233 -4 c-8 -5 -24 -9 -35 -9 -16 1
-16 2 5 9 35 11 48 11 30 0z m37 -16 c-3 -3 -12 -4 -19 -1 -8 3 -5 6 6 6 11 1
17 -2 13 -5z m73 -34 c0 -18 -19 -11 -30 11 -11 19 -10 20 9 9 12 -6 21 -15
21 -20z m-132 -7 c-10 -2 -28 -2 -40 0 -13 2 -5 4 17 4 22 1 32 -1 23 -4z
m-220 -19 c34 -9 27 -17 -35 -41 -201 -78 -414 -267 -559 -495 -46 -73 -53
-79 -63 -62 -12 18 -12 17 -8 -4 3 -12 1 -19 -4 -16 -6 3 -16 0 -24 -6 -16
-13 39 92 67 129 13 17 18 19 18 8 0 -8 -3 -17 -7 -19 -18 -7 -45 -70 -35 -80
7 -7 17 5 31 37 12 26 21 54 21 63 0 19 34 65 119 161 132 149 158 171 326
272 104 62 109 64 153 53z m-4026 -103 c-8 -4 -13 -12 -13 -17 1 -5 -4 -22 -9
-39 -12 -32 -19 -27 -35 24 -5 16 -4 21 4 17 6 -4 11 -3 11 3 0 5 8 12 18 14
29 8 38 7 24 -2z m59 -12 c21 -18 21 -20 4 -14 -11 4 -28 7 -37 7 -11 0 -15 5
-11 14 7 19 17 18 44 -7z m7398 -29 c-34 -30 -42 -24 -11 8 15 16 29 25 30 20
2 -5 -6 -18 -19 -28z m-7393 -55 c-21 -32 -43 -42 -59 -26 -8 8 -6 11 10 11
11 0 28 12 38 26 9 14 19 23 22 20 3 -3 -2 -17 -11 -31z m-481 -158 c-35 -81
-79 -175 -97 -209 -32 -60 -116 -156 -171 -194 l-27 -19 44 0 c25 0 48 -4 52
-8 4 -3 -3 -40 -15 -82 -12 -41 -24 -89 -26 -107 -6 -59 -23 -132 -40 -173
-17 -39 -111 -186 -385 -595 -153 -230 -198 -305 -295 -500 -172 -344 -434
-757 -640 -1008 -33 -41 -75 -92 -93 -115 -41 -52 -53 -57 -47 -20 6 41 15
470 9 456 -3 -7 -11 -115 -18 -240 l-13 -228 -2 150 c0 83 6 233 14 335 7 102
17 280 20 395 7 243 29 595 50 810 8 83 19 202 25 265 11 114 52 302 47 215
-2 -35 1 -40 21 -43 21 -3 23 -8 18 -40 -3 -20 -8 -59 -10 -87 -5 -50 -5 -49
8 10 23 110 25 115 42 108 14 -5 15 -1 9 26 -8 38 16 82 74 134 49 44 71 51
118 38 21 -6 74 -10 118 -9 44 1 60 3 35 5 -100 7 -149 15 -165 27 -16 12 -10
16 55 41 70 27 84 38 253 202 194 189 214 204 327 248 41 17 124 59 185 93
205 119 379 199 520 242 22 7 44 16 49 21 5 5 11 7 13 6 1 -2 -26 -69 -62
-150z m7669 114 c3 -4 -5 -18 -18 -30 -14 -13 -27 -34 -31 -48 -3 -14 -8 -23
-11 -20 -8 8 26 77 38 77 6 0 8 7 4 15 -6 16 9 21 18 6z m-64 -115 c0 -3 -4
-8 -10 -11 -5 -3 -10 -1 -10 4 0 6 5 11 10 11 6 0 10 -2 10 -4z m-59 -39 c-10
-9 -11 -8 -5 6 3 10 9 15 12 12 3 -3 0 -11 -7 -18z m-14 -23 c-3 -3 -12 -4
-19 -1 -8 3 -5 6 6 6 11 1 17 -2 13 -5z m-230 -66 c-3 -8 -6 -5 -6 6 -1 11 2
17 5 13 3 -3 4 -12 1 -19z m-4678 -12 c-2 -2 -22 -13 -44 -25 -22 -12 -30 -19
-17 -16 12 4 22 2 22 -4 0 -5 -13 -8 -28 -6 -22 3 -32 -3 -47 -25 -21 -31 -53
-44 -80 -34 -14 6 -14 8 2 19 10 7 27 15 38 17 11 1 27 10 37 17 25 21 112 69
117 65 2 -2 2 -6 0 -8z m-9 -47 c0 -5 -4 -9 -10 -9 -5 0 -10 7 -10 16 0 8 5
12 10 9 6 -3 10 -10 10 -16z m-200 -70 c12 -8 10 -9 -7 -4 -12 3 -24 1 -28 -5
-3 -5 -11 -10 -18 -10 -6 0 -2 7 9 15 23 17 25 18 44 4z m1370 -23 c0 -2 -8
-10 -17 -17 -16 -13 -17 -12 -4 4 13 16 21 21 21 13z m-1475 -36 c-3 -5 -1
-10 5 -10 6 0 8 -5 4 -11 -3 -6 0 -15 7 -20 9 -5 13 -25 12 -56 -1 -26 1 -42
4 -35 8 20 20 14 31 -15 14 -38 12 -65 -6 -85 -21 -25 -30 -22 -35 10 -3 17
-5 10 -6 -19 -1 -45 0 -46 25 -41 24 4 43 -9 44 -30 0 -14 -31 -8 -36 7 -8 19
-24 20 -24 1 0 -13 -4 -13 -27 0 -16 8 -43 12 -63 9 -19 -3 -29 -2 -22 1 16 8
15 19 -4 60 -9 19 -24 34 -34 34 -12 0 -16 8 -15 30 1 24 -1 28 -12 18 -9 -7
-10 -13 -3 -18 7 -4 5 -19 -5 -46 -12 -30 -14 -33 -11 -11 2 15 -1 30 -5 33
-5 3 -9 -1 -9 -8 0 -8 -9 -21 -20 -31 -22 -18 -26 -37 -9 -37 5 0 7 -5 3 -11
-4 -8 -9 -7 -15 2 -8 11 -12 11 -23 -3 -7 -10 -19 -18 -27 -18 -7 0 3 15 22
33 20 17 44 44 53 59 10 15 23 25 29 21 6 -4 8 0 5 9 -9 21 57 104 117 150 53
40 60 44 50 28z m-515 -29 c0 -5 -27 -11 -60 -13 -61 -3 -83 7 -32 15 52 8 92
7 92 -2z m1767 -33 c-3 -8 -6 -5 -6 6 -1 11 2 17 5 13 3 -3 4 -12 1 -19z
m-1877 -38 c-8 -5 -17 -7 -19 -4 -3 3 1 9 9 14 8 5 17 7 19 4 3 -3 -1 -9 -9
-14z m5550 -5 c10 -12 10 -15 -4 -15 -9 0 -16 7 -16 15 0 8 2 15 4 15 2 0 9
-7 16 -15z m-5490 -25 c1 8 2 19 1 23 -1 5 3 7 9 5 7 -2 11 -8 11 -13 0 -6 7
-14 15 -18 26 -15 3 -27 -52 -27 -42 0 -54 3 -54 16 0 10 5 12 13 7 22 -14 38
-12 36 5 -3 31 3 37 11 12 5 -14 9 -18 10 -10z m5580 -101 c0 -28 -4 -39 -15
-39 -11 0 -15 12 -15 51 0 45 2 50 15 39 9 -7 15 -29 15 -51z m-5600 49 c0 -2
-7 -39 -15 -83 -8 -44 -14 -86 -15 -93 0 -7 -4 -10 -10 -7 -5 3 -11 0 -11 -7
-1 -7 -5 10 -9 37 -4 28 -3 51 1 53 5 2 6 16 3 31 -7 36 11 71 36 71 11 0 20
-1 20 -2z m67 -16 c-10 -10 -17 -23 -17 -28 0 -5 -9 -20 -20 -34 -21 -27 -24
-21 -20 35 3 41 7 45 42 45 29 0 30 -1 15 -18z m380 -34 c-3 -8 -6 -5 -6 6 -1
11 2 17 5 13 3 -3 4 -12 1 -19z m-357 7 c0 -4 -7 -20 -16 -37 -13 -25 -14 -32
-2 -39 8 -6 9 -9 1 -9 -7 0 -10 -15 -9 -39 3 -44 -8 -52 -74 -50 -19 1 -27 3
-17 6 9 2 17 12 17 21 1 15 2 15 11 -1 8 -13 14 -15 30 -7 14 8 19 21 19 54 0
63 11 106 26 106 8 0 14 -2 14 -5z m1816 -36 c-9 -19 -15 -29 -16 -22 0 15 22
64 27 60 2 -2 -3 -19 -11 -38z m-1511 11 c3 -5 1 -10 -4 -10 -6 0 -11 5 -11
10 0 6 2 10 4 10 3 0 8 -4 11 -10z m50 -10 c3 -5 1 -10 -4 -10 -6 0 -11 5 -11
10 0 6 2 10 4 10 3 0 8 -4 11 -10z m1399 -25 c5 -22 4 -26 -4 -15 -5 8 -10 24
-10 34 0 26 6 18 14 -19z m-314 -2 c0 -10 -20 -40 -20 -31 0 3 -3 13 -6 22 -4
11 -1 16 10 16 9 0 16 -3 16 -7z m50 -8 c-12 -15 -30 -12 -30 6 0 5 10 9 21 9
18 0 19 -2 9 -15z m50 5 c0 -5 -2 -10 -4 -10 -3 0 -8 5 -11 10 -3 6 -1 10 4
10 6 0 11 -4 11 -10z m-1600 -41 c0 -38 -24 -35 -28 4 -2 19 1 27 12 27 11 0
16 -10 16 -31z m257 25 c-3 -3 -12 -4 -19 -1 -8 3 -5 6 6 6 11 1 17 -2 13 -5z
m1598 -4 c-4 -6 -17 -48 -30 -93 -13 -45 -24 -75 -24 -67 -1 17 34 143 44 160
3 5 8 10 11 10 3 0 2 -5 -1 -10z m-1608 -16 c-3 -3 -12 -4 -19 -1 -8 3 -5 6 6
6 11 1 17 -2 13 -5z m46 -1 c-7 -2 -19 -2 -25 0 -7 3 -2 5 12 5 14 0 19 -2 13
-5z m136 -2 c8 -5 -5 -7 -35 -4 -27 3 -51 7 -53 9 -9 8 75 3 88 -5z m331 -1
c0 -13 -11 -13 -30 0 -12 8 -11 10 8 10 12 0 22 -4 22 -10z m-457 -17 c-7 -2
-21 -2 -30 0 -10 3 -4 5 12 5 17 0 24 -2 18 -5z m265 -10 c-10 -2 -28 -2 -40
0 -13 2 -5 4 17 4 22 1 32 -1 23 -4z m117 -13 c27 -7 27 -8 5 -8 -14 0 -38 4
-55 8 -27 7 -27 8 -5 8 14 0 39 -4 55 -8z m594 -58 c-10 -4 -119 44 -119 52 0
2 29 -8 64 -23 36 -14 60 -28 55 -29z m-1359 28 c0 -5 -7 -10 -15 -10 -8 0
-15 5 -15 10 0 6 7 10 15 10 8 0 15 -4 15 -10z m1630 0 c8 -5 11 -10 5 -10 -5
0 -17 5 -25 10 -8 5 -10 10 -5 10 6 0 17 -5 25 -10z m-1572 -47 c-10 -2 -18
-9 -18 -14 0 -5 -4 -9 -10 -9 -5 0 -10 7 -10 15 0 10 9 15 28 14 16 -1 20 -3
10 -6z m-3413 -378 c-8 -82 -17 -151 -20 -153 -3 -3 -10 10 -17 29 -6 19 -31
71 -55 116 -36 68 -52 113 -40 113 1 0 33 11 72 24 38 14 71 24 72 22 2 -1 -4
-69 -12 -151z m-69 -179 l37 -69 -7 -136 c-4 -74 -15 -318 -26 -541 -11 -223
-24 -484 -30 -580 -6 -96 -14 -245 -19 -331 -8 -152 -9 -157 -39 -200 -29 -43
-130 -140 -216 -208 -21 -17 -39 -31 -40 -31 -6 0 47 580 69 755 51 396 65
515 85 700 21 194 84 647 99 716 5 21 8 40 7 41 0 2 9 -8 21 -22 13 -14 39
-56 59 -94z m9154 44 c0 -29 -4 -40 -15 -40 -11 0 -15 11 -15 40 0 29 4 40 15
40 11 0 15 -11 15 -40z m-80 -275 c0 -131 -2 -155 -15 -155 -13 0 -15 24 -15
155 0 131 2 155 15 155 13 0 15 -24 15 -155z m-6430 -85 c0 -5 -4 -10 -10 -10
-5 0 -10 5 -10 10 0 6 5 10 10 10 6 0 10 -4 10 -10z m6695 -1212 c4 -18 10
-37 13 -42 3 -5 4 -67 3 -138 -1 -70 1 -128 6 -128 4 0 6 -27 5 -61 -3 -47 0
-65 14 -80 17 -18 16 -19 -14 -19 l-32 0 0 79 c0 44 -4 81 -9 83 -7 2 -17 260
-12 326 2 25 20 11 26 -20z m-375 -175 c-1 -24 -2 -26 -11 -10 -5 9 -7 22 -4
27 10 17 15 11 15 -17z m-8973 -70 c-3 -10 -5 -4 -5 12 0 17 2 24 5 18 2 -7 2
-21 0 -30z m9094 -153 c5 0 9 -9 9 -20 0 -27 18 -25 23 3 3 12 4 3 4 -20 -1
-40 -2 -42 -19 -26 -17 15 -18 15 -18 -1 0 -10 5 -14 11 -10 8 5 10 0 6 -17
-3 -13 -3 -29 1 -34 8 -11 58 -45 67 -45 3 0 5 23 5 50 0 28 -4 50 -10 50 -5
0 -10 18 -10 40 0 22 5 40 10 40 6 0 10 -18 10 -40 0 -29 4 -40 15 -40 9 0 15
-9 15 -25 0 -25 1 -25 79 -25 55 0 81 4 84 13 3 8 10 7 26 -7 31 -28 26 -36
-19 -36 -39 0 -40 -1 -40 -35 0 -24 5 -35 15 -35 8 0 15 9 15 19 0 15 9 20 48
23 26 2 62 -2 80 -9 29 -12 32 -12 32 4 1 24 41 -52 51 -94 4 -18 3 -33 -2
-33 -5 0 -9 -36 -9 -80 0 -47 4 -80 10 -80 6 0 11 -35 11 -82 2 -67 3 -75 9
-43 6 32 7 22 9 -45 0 -55 -3 -90 -11 -98 -9 -9 -9 -15 0 -24 15 -15 16 -108
2 -108 -7 0 -7 -6 -2 -17 10 -20 -9 -78 -22 -66 -4 4 -4 -1 0 -11 5 -14 4 -17
-4 -12 -20 12 -13 -10 8 -29 11 -10 20 -13 20 -7 0 6 -5 12 -12 14 -8 3 -8 10
4 26 14 21 15 19 13 -30 -1 -44 2 -55 23 -73 14 -12 23 -27 21 -34 -4 -12
-104 115 -164 210 -16 26 -63 90 -104 143 -65 85 -72 98 -60 114 12 15 12 16
-2 4 -14 -11 -22 -6 -56 35 -49 61 -77 123 -68 154 4 17 3 20 -3 10 -7 -9 -16
8 -31 60 -12 41 -38 124 -58 184 -19 61 -36 115 -37 120 -1 6 -7 20 -14 32
-14 26 -5 56 15 49 8 -3 19 -6 24 -6z m-9761 -80 c0 -5 -4 -10 -10 -10 -5 0
-10 5 -10 10 0 6 5 10 10 10 6 0 10 -4 10 -10z m9800 -30 c0 -5 -4 -10 -10
-10 -5 0 -10 5 -10 10 0 6 5 10 10 10 6 0 10 -4 10 -10z m-9308 -393 c60 -44
46 -101 -65 -268 -110 -166 -151 -221 -142 -189 5 14 8 32 8 40 -2 42 52 283
78 348 5 13 9 34 9 47 0 13 5 27 10 30 6 3 10 15 10 26 0 19 1 19 33 3 17 -10
44 -26 59 -37z m3475 -484 c-11 -42 -11 -48 1 -45 6 1 12 -5 12 -13 0 -8 11
-22 25 -31 14 -9 23 -19 20 -23 -2 -4 2 -8 10 -8 8 0 12 4 9 9 -3 4 10 5 28 1
40 -7 48 -13 22 -14 -18 0 -18 -1 1 -9 17 -7 17 -9 3 -9 -23 -1 -24 -21 -1
-21 18 0 12 -10 -9 -14 -7 -2 -20 -6 -28 -9 -8 -4 -24 -5 -34 -4 -15 2 -22 -7
-28 -38 -5 -21 -6 -45 -3 -53 2 -7 0 -10 -5 -7 -15 9 -12 -2 6 -30 20 -31 8
-32 -23 -3 -20 18 -23 19 -23 5 0 -9 5 -17 11 -17 6 0 17 -7 25 -15 14 -13 13
-15 -3 -16 -10 -1 -21 -1 -25 0 -12 2 -10 -47 2 -54 6 -3 10 3 10 14 0 20 17
37 27 27 3 -3 0 -12 -6 -20 -7 -8 -10 -20 -6 -26 3 -5 -1 -10 -9 -10 -9 0 -15
-5 -13 -11 1 -6 -3 -13 -9 -16 -7 -2 -13 41 -18 134 -12 246 -19 332 -26 328
-4 -3 -5 -65 -2 -138 3 -94 1 -140 -7 -153 -12 -18 -12 -18 -7 1 3 11 1 38 -5
60 -16 61 -17 74 -18 159 -1 73 -2 78 -21 73 -11 -3 -23 -1 -26 4 -3 5 28 9
72 9 68 0 76 -2 71 -17z m177 7 c32 -5 61 -12 64 -14 7 -8 63 -289 58 -293 -5
-5 -11 15 -21 65 -4 17 -11 32 -16 32 -5 0 -7 12 -4 28 4 22 4 23 -4 7 -5 -11
-8 -38 -5 -60 3 -37 2 -36 -8 8 -10 46 -12 49 -40 45 -16 -3 -31 -1 -34 4 -3
5 -2 8 3 7 4 -1 20 -1 35 0 26 1 26 3 17 31 -10 28 -29 41 -29 20 0 -21 -40
-10 -44 13 -11 53 11 76 42 45 10 -10 15 -10 22 2 6 9 5 19 0 24 -15 15 -53
18 -62 4 -6 -10 -8 -8 -8 4 0 10 -10 20 -22 22 -13 3 -32 7 -43 9 -42 9 42 7
99 -3z m6171 -70 c3 -5 1 -10 -4 -10 -6 0 -11 5 -11 10 0 6 2 10 4 10 3 0 8
-4 11 -10z m33 -61 c-3 -8 -7 -3 -11 10 -4 17 -3 21 5 13 5 -5 8 -16 6 -23z
m-6258 -73 c0 -3 -4 -8 -10 -11 -5 -3 -10 -1 -10 4 0 6 5 11 10 11 6 0 10 -2
10 -4z m6296 -83 c-4 -4 -36 73 -35 85 0 4 9 -13 20 -37 11 -24 18 -46 15 -48z
m-6205 10 c-11 -5 -11 -7 0 -15 12 -8 12 -9 0 -6 -22 6 -25 28 -4 27 12 0 14
-2 4 -6z m56 -15 c-3 -8 -6 -5 -6 6 -1 11 2 17 5 13 3 -3 4 -12 1 -19z m6162
-64 c7 -29 9 -32 10 -14 1 19 3 22 11 10 5 -9 5 -19 -1 -26 -5 -7 -7 -24 -3
-39 5 -20 9 -23 15 -13 6 9 9 6 9 -12 1 -27 43 -104 52 -94 3 3 9 0 14 -7 5
-8 3 -10 -6 -4 -8 5 -11 3 -8 -6 3 -8 11 -13 18 -11 7 2 10 -3 7 -12 -7 -18
18 -40 35 -30 7 4 10 3 5 -1 -10 -11 23 -46 36 -38 6 4 7 1 3 -6 -5 -7 0 -21
10 -32 14 -15 20 -17 32 -6 13 10 14 9 3 -10 -11 -22 -12 -22 -50 20 -22 23
-58 62 -80 86 -56 60 -98 139 -116 214 -8 34 -15 66 -15 71 0 20 10 -2 19 -40z
m-9193 -315 c-19 -57 -58 -171 -86 -254 -29 -82 -54 -159 -56 -170 -3 -16 -65
-242 -80 -293 -2 -7 -9 -10 -15 -6 -7 4 -9 0 -5 -14 4 -13 1 -31 -9 -45 -8
-13 -13 -32 -9 -41 3 -9 2 -16 -4 -16 -5 0 -13 -20 -16 -45 -4 -24 -11 -47
-17 -50 -5 -4 -9 -25 -9 -47 0 -40 -13 -95 -32 -131 -5 -10 -6 -23 -2 -29 4
-6 3 -8 -3 -5 -6 4 -14 0 -17 -9 -9 -24 -6 -42 4 -19 20 45 9 -14 -17 -93 -29
-89 -33 -89 -52 -7 l-7 30 -5 -32 c-3 -18 -2 -30 3 -27 9 6 10 5 12 -68 3 -65
0 -68 -11 -15 -6 29 -11 34 -23 27 -13 -9 -13 -11 0 -20 13 -9 13 -11 0 -20
-8 -6 -27 -13 -42 -17 -16 -3 -28 -12 -28 -21 0 -8 -19 -33 -41 -56 -23 -22
-37 -42 -30 -44 19 -6 12 -20 -21 -36 -38 -19 -38 -19 -38 -2 0 8 -7 22 -16
31 -14 13 -14 20 -3 47 10 24 10 33 1 36 -14 4 -16 82 -2 82 6 0 10 45 10 114
0 63 4 126 9 139 17 43 31 178 36 328 5 170 11 254 25 329 27 156 42 274 45
353 3 59 9 97 19 112 19 29 86 49 130 41 51 -11 67 -8 197 29 68 19 148 38
177 42 28 3 53 11 53 17 1 6 3 4 6 -5 2 -9 -12 -63 -31 -120z m9456 -76 c-5
-10 -11 -25 -14 -33 -3 -9 -7 -5 -10 12 -3 15 -2 25 3 23 4 -3 10 -1 14 5 11
17 16 11 7 -7z m23 -93 c3 -5 1 -10 -4 -10 -6 0 -11 5 -11 10 0 6 2 10 4 10 3
0 8 -4 11 -10z m-9888 -1212 c-3 -8 -6 -5 -6 6 -1 11 2 17 5 13 3 -3 4 -12 1
-19z m-90 -230 c-3 -8 -6 -5 -6 6 -1 11 2 17 5 13 3 -3 4 -12 1 -19z"/>
<path d="M4826 12291 c-4 -5 3 -7 14 -4 23 6 26 13 6 13 -8 0 -17 -4 -20 -9z"/>
<path d="M5630 12225 c7 -9 15 -13 17 -11 7 7 -7 26 -19 26 -6 0 -6 -6 2 -15z"/>
<path d="M6782 12076 c7 -8 15 -12 17 -11 5 6 -10 25 -20 25 -5 0 -4 -6 3 -14z"/>
<path d="M5476 11841 c-9 -10 -14 -25 -10 -35 6 -15 8 -14 25 5 10 11 15 27
12 35 -7 18 -7 18 -27 -5z m12 -15 c-7 -8 -15 -12 -17 -11 -5 6 10 25 20 25 5
0 4 -6 -3 -14z"/>
<path d="M4710 11419 c0 -5 5 -7 10 -4 6 3 10 8 10 11 0 2 -4 4 -10 4 -5 0
-10 -5 -10 -11z"/>
<path d="M4773 11345 c-3 -9 -3 -18 -1 -21 3 -3 8 4 11 16 6 23 -1 27 -10 5z"/>
<path d="M4896 11052 c-2 -4 4 -8 14 -8 10 0 16 4 14 8 -3 4 -9 8 -14 8 -5 0
-11 -4 -14 -8z"/>
<path d="M3360 10884 c0 -13 38 -54 50 -54 6 0 10 5 10 10 0 6 -4 10 -10 10
-5 0 -18 10 -30 22 -11 12 -20 17 -20 12z"/>
<path d="M14391 8304 c0 -11 3 -14 6 -6 3 7 2 16 -1 19 -3 4 -6 -2 -5 -13z"/>
<path d="M14421 8144 c0 -11 3 -14 6 -6 3 7 2 16 -1 19 -3 4 -6 -2 -5 -13z"/>
<path d="M14421 8028 c-1 -16 4 -28 9 -28 12 0 12 8 0 35 -8 18 -9 17 -9 -7z"/>
<path d="M14402 8020 c0 -14 2 -19 5 -12 2 6 2 18 0 25 -3 6 -5 1 -5 -13z"/>
<path d="M10097 7589 c4 -13 8 -18 11 -10 2 7 -1 18 -6 23 -8 8 -9 4 -5 -13z"/>
<path d="M10090 7530 c0 -5 5 -10 10 -10 6 0 10 5 10 10 0 6 -4 10 -10 10 -5
0 -10 -4 -10 -10z"/>
<path d="M9478 7027 c14 -6 26 -7 32 -1 5 5 -4 9 -23 10 -30 1 -30 1 -9 -9z"/>
<path d="M10422 7548 c-10 -13 -29 -67 -20 -58 7 7 37 70 33 70 -1 0 -7 -6
-13 -12z"/>
<path d="M5498 6923 c7 -3 16 -2 19 1 4 3 -2 6 -13 5 -11 0 -14 -3 -6 -6z"/>
<path d="M5428 6913 c6 -2 18 -2 25 0 6 3 1 5 -13 5 -14 0 -19 -2 -12 -5z"/>
<path d="M4947 6464 c-4 -22 -10 -92 -13 -155 l-6 -114 34 -40 c56 -65 176
-249 207 -317 16 -35 32 -85 35 -111 8 -54 34 -132 35 -104 1 10 8 20 17 24
14 5 15 20 10 113 -7 120 -38 292 -64 348 -26 58 -69 118 -139 195 -84 93 -96
111 -103 161 l-6 41 -7 -41z"/>
<path d="M8990 7400 c-13 -9 -13 -10 0 -10 8 0 22 5 30 10 13 9 13 10 0 10 -8
0 -22 -5 -30 -10z"/>
<path d="M8757 7233 c-14 -17 -13 -19 8 -36 26 -19 47 -5 25 16 -10 9 -11 9
-5 -2 5 -9 3 -12 -6 -9 -20 7 -17 33 3 32 10 -1 15 2 12 7 -8 14 -19 11 -37
-8z"/>
<path d="M8803 7080 c0 -25 2 -35 4 -22 2 12 2 32 0 45 -2 12 -4 2 -4 -23z"/>
<path d="M8227 7103 c-12 -12 -7 -22 8 -17 8 4 15 10 15 15 0 11 -14 12 -23 2z"/>
<path d="M8291 7104 c0 -11 3 -14 6 -6 3 7 2 16 -1 19 -3 4 -6 -2 -5 -13z"/>
<path d="M13850 4365 c7 -9 15 -13 17 -11 7 7 -7 26 -19 26 -6 0 -6 -6 2 -15z"/>
<path d="M4420 3501 c0 -6 4 -13 10 -16 6 -3 7 1 4 9 -7 18 -14 21 -14 7z"/>
<path d="M8152 3258 c-16 -16 -15 -28 3 -28 8 0 15 9 15 20 0 23 -2 24 -18 8z"/>
<path d="M5001 1724 c0 -11 3 -14 6 -6 3 7 2 16 -1 19 -3 4 -6 -2 -5 -13z"/>
<path d="M4971 1644 c0 -11 3 -14 6 -6 3 7 2 16 -1 19 -3 4 -6 -2 -5 -13z"/>
<path d="M4921 1454 c0 -11 3 -14 6 -6 3 7 2 16 -1 19 -3 4 -6 -2 -5 -13z"/>
<path d="M4053 14496 c4 -10 7 -24 7 -32 0 -9 4 -13 9 -10 11 7 3 44 -12 53
-7 4 -8 0 -4 -11z"/>
<path d="M14442 13270 c0 -14 2 -19 5 -12 2 6 2 18 0 25 -3 6 -5 1 -5 -13z"/>
<path d="M13271 12734 c0 -11 3 -14 6 -6 3 7 2 16 -1 19 -3 4 -6 -2 -5 -13z"/>
<path d="M13258 12133 c-4 -19 -14 -33 -22 -33 -8 0 -16 -4 -18 -9 -7 -20
-100 -121 -243 -265 -215 -216 -236 -233 -249 -203 -3 6 -4 4 -3 -7 1 -11 -9
-24 -28 -35 -76 -43 -191 -121 -229 -157 -6 -6 -24 -19 -41 -29 -25 -16 -123
-90 -175 -132 -8 -7 -24 -19 -35 -27 -11 -9 -14 -16 -8 -16 7 0 39 20 70 45
32 25 90 68 128 95 39 28 90 66 115 85 25 20 53 38 63 41 9 4 17 10 17 14 0 4
8 10 18 14 24 8 76 39 116 70 19 14 37 26 41 26 9 0 28 16 122 105 103 96 273
267 273 275 0 3 18 25 40 50 l40 45 0 -30 c1 -25 2 -27 11 -12 5 9 9 41 7 70
-3 47 -4 49 -10 20z"/>
<path d="M13250 11410 c0 -5 5 -10 11 -10 5 0 7 5 4 10 -3 6 -8 10 -11 10 -2
0 -4 -4 -4 -10z"/>
<path d="M13121 11344 c-1 -18 26 -37 34 -24 3 5 0 10 -9 10 -8 0 -17 6 -19
13 -4 7 -6 8 -6 1z"/>
<path d="M13003 11273 c9 -2 25 -2 35 0 9 3 1 5 -18 5 -19 0 -27 -2 -17 -5z"/>
<path d="M12170 11200 c-8 -5 -10 -10 -5 -10 6 0 17 5 25 10 8 5 11 10 5 10
-5 0 -17 -5 -25 -10z"/>
<path d="M13170 10600 c0 -29 4 -40 15 -40 11 0 15 11 15 40 0 29 -4 40 -15
40 -11 0 -15 -11 -15 -40z"/>
<path d="M13090 9760 c0 -64 3 -80 15 -80 12 0 15 16 15 80 0 64 -3 80 -15 80
-12 0 -15 -16 -15 -80z"/>
<path d="M13361 9424 c0 -11 3 -14 6 -6 3 7 2 16 -1 19 -3 4 -6 -2 -5 -13z"/>
<path d="M14058 9343 c6 -2 18 -2 25 0 6 3 1 5 -13 5 -14 0 -19 -2 -12 -5z"/>
<path d="M13362 9305 c0 -16 2 -22 5 -12 2 9 2 23 0 30 -3 6 -5 -1 -5 -18z"/>
<path d="M14260 9150 c-8 -210 -6 -600 3 -591 4 4 6 169 4 367 -1 217 -4 306
-7 224z"/>
<path d="M14342 8900 c0 -14 2 -19 5 -12 2 6 2 18 0 25 -3 6 -5 1 -5 -13z"/>
<path d="M13384 8760 c0 -69 1 -97 3 -62 2 34 2 90 0 125 -2 34 -3 6 -3 -63z"/>
<path d="M10461 8289 c-24 -19 -18 -26 8 -10 9 6 24 5 39 0 17 -6 29 -6 36 1
5 5 8 10 5 10 -2 0 -18 4 -35 9 -23 7 -35 4 -53 -10z"/>
<path d="M13382 8180 c0 -19 2 -27 5 -17 2 9 2 25 0 35 -3 9 -5 1 -5 -18z"/>
<path d="M11070 8150 c8 -5 22 -9 30 -9 10 0 8 3 -5 9 -27 12 -43 12 -25 0z"/>
<path d="M13381 8094 c0 -11 3 -14 6 -6 3 7 2 16 -1 19 -3 4 -6 -2 -5 -13z"/>
<path d="M11014 8025 c-16 -12 -17 -14 -3 -15 9 0 19 7 23 15 7 19 5 19 -20 0z"/>
<path d="M13385 7900 c-4 -6 7 -10 25 -10 18 0 29 4 25 10 -3 6 -15 10 -25 10
-10 0 -22 -4 -25 -10z"/>
<path d="M13523 7853 c9 -2 23 -2 30 0 6 3 -1 5 -18 5 -16 0 -22 -2 -12 -5z"/>
<path d="M11885 7670 c10 -11 20 -20 23 -20 3 0 -3 9 -13 20 -10 11 -20 20
-23 20 -3 0 3 -9 13 -20z"/>
<path d="M11980 7570 c6 -11 13 -20 16 -20 2 0 0 9 -6 20 -6 11 -13 20 -16 20
-2 0 0 -9 6 -20z"/>
<path d="M13658 7203 c7 -3 16 -2 19 1 4 3 -2 6 -13 5 -11 0 -14 -3 -6 -6z"/>
<path d="M12545 6710 c-3 -5 -2 -18 4 -27 7 -14 9 -12 8 10 -2 30 -3 31 -12
17z"/>
<path d="M13764 6480 c0 -52 1 -74 3 -47 2 26 2 68 0 95 -2 26 -3 4 -3 -48z"/>
<path d="M13753 6160 c0 -47 2 -66 4 -42 2 23 2 61 0 85 -2 23 -4 4 -4 -43z"/>
<path d="M13346 5187 c3 -10 9 -15 12 -12 3 3 0 11 -7 18 -10 9 -11 8 -5 -6z"/>
<path d="M13316 5163 c-6 -14 -5 -15 5 -6 7 7 10 15 7 18 -3 3 -9 -2 -12 -12z"/>
<path d="M13496 4947 c3 -10 9 -15 12 -12 3 3 0 11 -7 18 -10 9 -11 8 -5 -6z"/>
<path d="M13626 4774 c-9 -24 -7 -27 9 -10 17 17 19 26 6 26 -5 0 -12 -7 -15
-16z"/>
<path d="M13781 4523 c0 -5 4 -17 9 -28 8 -18 9 -17 9 8 1 15 -3 27 -9 27 -5
0 -10 -3 -9 -7z"/>
<path d="M13897 4503 c-18 -34 -23 -78 -8 -87 4 -3 6 6 3 21 -3 18 1 30 12 39
11 7 16 22 14 36 -3 22 -4 21 -21 -9z"/>
<path d="M15095 2230 c3 -5 10 -10 16 -10 5 0 9 5 9 10 0 6 -7 10 -16 10 -8 0
-12 -4 -9 -10z"/>
</g>
</svg>
